<mxfile host="65bd71144e">
    <diagram id="5DIWrdhLwUrtFaI1QlfB" name="Page-1">
        <mxGraphModel dx="4788" dy="3188" grid="1" gridSize="10" guides="1" tooltips="1" connect="1" arrows="1" fold="1" page="1" pageScale="1" pageWidth="3300" pageHeight="4681" math="1" shadow="0">
            <root>
                <mxCell id="0"/>
                <mxCell id="1" parent="0"/>
                <mxCell id="316" style="edgeStyle=none;curved=1;rounded=0;orthogonalLoop=1;jettySize=auto;html=1;exitX=0.5;exitY=1;exitDx=0;exitDy=0;fontSize=100;endArrow=open;startSize=14;endSize=14;sourcePerimeterSpacing=8;targetPerimeterSpacing=8;" edge="1" parent="1" source="274" target="295">
                    <mxGeometry relative="1" as="geometry"/>
                </mxCell>
                <mxCell id="319" style="edgeStyle=none;curved=1;rounded=0;orthogonalLoop=1;jettySize=auto;html=1;fontSize=100;endArrow=block;startSize=14;endSize=35;sourcePerimeterSpacing=8;targetPerimeterSpacing=8;strokeWidth=10;endFill=1;" edge="1" parent="1" source="274" target="274">
                    <mxGeometry relative="1" as="geometry">
                        <mxPoint x="1125" y="670" as="targetPoint"/>
                        <Array as="points">
                            <mxPoint x="1025" y="600"/>
                            <mxPoint x="1105" y="510"/>
                            <mxPoint x="1245" y="590"/>
                        </Array>
                    </mxGeometry>
                </mxCell>
                <mxCell id="274" value="" style="ellipse;whiteSpace=wrap;html=1;fillColor=#dae8fc;strokeColor=#000000;gradientColor=none;strokeWidth=8;" vertex="1" parent="1">
                    <mxGeometry x="540" y="720" width="1110" height="390" as="geometry"/>
                </mxCell>
                <mxCell id="280" value="" style="ellipse;whiteSpace=wrap;html=1;fillColor=#dae8fc;strokeColor=#000000;strokeWidth=8;" vertex="1" parent="1">
                    <mxGeometry x="610" y="1610" width="980" height="385" as="geometry"/>
                </mxCell>
                <mxCell id="332" style="edgeStyle=none;orthogonalLoop=1;jettySize=auto;html=1;strokeWidth=10;fontSize=50;fontColor=#FF0000;endArrow=block;startSize=14;endSize=35;sourcePerimeterSpacing=8;targetPerimeterSpacing=8;curved=1;entryX=0.006;entryY=0.96;entryDx=0;entryDy=0;entryPerimeter=0;exitX=-0.001;exitY=0.074;exitDx=0;exitDy=0;exitPerimeter=0;endFill=1;" edge="1" parent="1" source="310" target="310">
                    <mxGeometry relative="1" as="geometry">
                        <mxPoint x="600" y="2750" as="targetPoint"/>
                        <Array as="points">
                            <mxPoint x="530" y="2410"/>
                            <mxPoint x="380" y="2500"/>
                            <mxPoint x="420" y="2680"/>
                            <mxPoint x="600" y="2740"/>
                        </Array>
                    </mxGeometry>
                </mxCell>
                <mxCell id="281" value="" style="ellipse;whiteSpace=wrap;html=1;fillColor=#dae8fc;strokeColor=#000000;strokeWidth=8;" vertex="1" parent="1">
                    <mxGeometry x="625" y="2330" width="950" height="450" as="geometry"/>
                </mxCell>
                <mxCell id="282" value="" style="ellipse;whiteSpace=wrap;html=1;fillColor=#dae8fc;strokeColor=#000000;strokeWidth=8;" vertex="1" parent="1">
                    <mxGeometry x="720" y="3120" width="760" height="390" as="geometry"/>
                </mxCell>
                <mxCell id="283" value="" style="ellipse;whiteSpace=wrap;html=1;strokeWidth=8;fillColor=#f5f5f5;strokeColor=#000000;fontColor=#333333;" vertex="1" parent="1">
                    <mxGeometry x="1650" y="2120" width="700" height="185" as="geometry"/>
                </mxCell>
                <mxCell id="294" value="&lt;font style=&quot;font-size: 120px;&quot;&gt;Idle&lt;/font&gt;" style="text;html=1;align=center;verticalAlign=middle;resizable=0;points=[];autosize=1;strokeColor=none;fillColor=none;" vertex="1" parent="1">
                    <mxGeometry x="1890" y="2132.5" width="220" height="160" as="geometry"/>
                </mxCell>
                <mxCell id="295" value="&lt;font style=&quot;font-size: 100px;&quot;&gt;Calculate Metric &amp;amp; &lt;br&gt;Update Mode flag&lt;/font&gt;" style="text;html=1;align=center;verticalAlign=middle;resizable=0;points=[];autosize=1;strokeColor=none;fillColor=none;" vertex="1" parent="1">
                    <mxGeometry x="680" y="782.5" width="830" height="250" as="geometry"/>
                </mxCell>
                <mxCell id="296" value="&lt;font style=&quot;font-size: 80px;&quot;&gt;While MCU is running&lt;/font&gt;" style="text;html=1;align=center;verticalAlign=middle;resizable=0;points=[];autosize=1;strokeColor=none;fillColor=none;" vertex="1" parent="1">
                    <mxGeometry x="700" y="410" width="800" height="110" as="geometry"/>
                </mxCell>
                <mxCell id="297" value="&lt;font color=&quot;#ff0000&quot; style=&quot;font-size: 50px;&quot;&gt;ELSE&lt;/font&gt;" style="text;html=1;align=center;verticalAlign=middle;resizable=0;points=[];autosize=1;strokeColor=none;fillColor=none;" vertex="1" parent="1">
                    <mxGeometry x="940" y="1460" width="150" height="70" as="geometry"/>
                </mxCell>
                <mxCell id="301" value="&lt;font style=&quot;font-size: 100px;&quot;&gt;from bit mask&lt;/font&gt;" style="text;html=1;align=center;verticalAlign=middle;resizable=0;points=[];autosize=1;strokeColor=none;fillColor=none;" vertex="1" parent="1">
                    <mxGeometry x="795" y="3310" width="620" height="130" as="geometry"/>
                </mxCell>
                <mxCell id="302" value="&lt;font style=&quot;font-size: 120px;&quot;&gt;$$\hat{x}$$&amp;nbsp;&lt;/font&gt;" style="text;html=1;align=center;verticalAlign=middle;resizable=0;points=[];autosize=1;strokeColor=none;fillColor=none;" vertex="1" parent="1">
                    <mxGeometry x="790" y="3150" width="660" height="160" as="geometry"/>
                </mxCell>
                <mxCell id="306" value="&lt;font style=&quot;font-size: 100px;&quot;&gt;Flip&lt;/font&gt;" style="text;html=1;align=center;verticalAlign=middle;resizable=0;points=[];autosize=1;strokeColor=none;fillColor=none;" vertex="1" parent="1">
                    <mxGeometry x="860" y="3180" width="180" height="130" as="geometry"/>
                </mxCell>
                <mxCell id="307" value="&lt;font style=&quot;font-size: 100px;&quot;&gt;Or keep same bits&lt;/font&gt;" style="text;html=1;align=center;verticalAlign=middle;resizable=0;points=[];autosize=1;strokeColor=none;fillColor=none;" vertex="1" parent="1">
                    <mxGeometry x="710" y="1782.5" width="830" height="130" as="geometry"/>
                </mxCell>
                <mxCell id="308" value="&lt;font style=&quot;font-size: 100px;&quot;&gt;Unflip bits in&lt;/font&gt;" style="text;html=1;align=center;verticalAlign=middle;resizable=0;points=[];autosize=1;strokeColor=none;fillColor=none;" vertex="1" parent="1">
                    <mxGeometry x="750" y="1665" width="570" height="130" as="geometry"/>
                </mxCell>
                <mxCell id="309" value="&lt;font style=&quot;font-size: 120px;&quot;&gt;$$\hat{x}$$&amp;nbsp;&lt;/font&gt;" style="text;html=1;align=center;verticalAlign=middle;resizable=0;points=[];autosize=1;strokeColor=none;fillColor=none;" vertex="1" parent="1">
                    <mxGeometry x="1070" y="1635" width="660" height="160" as="geometry"/>
                </mxCell>
                <mxCell id="310" value="&lt;font style=&quot;font-size: 100px;&quot;&gt;Calculate Metric &amp;amp; &lt;br&gt;Update bit mask&lt;/font&gt;" style="text;html=1;align=center;verticalAlign=middle;resizable=0;points=[];autosize=1;strokeColor=none;fillColor=none;" vertex="1" parent="1">
                    <mxGeometry x="685" y="2430" width="830" height="250" as="geometry"/>
                </mxCell>
                <mxCell id="311" value="&lt;font style=&quot;font-size: 80px;&quot;&gt;While MCU &lt;br&gt;is&amp;nbsp;running&lt;/font&gt;" style="text;html=1;align=center;verticalAlign=middle;resizable=0;points=[];autosize=1;strokeColor=none;fillColor=none;" vertex="1" parent="1">
                    <mxGeometry x="330" y="2200" width="430" height="210" as="geometry"/>
                </mxCell>
                <mxCell id="313" value="&lt;font style=&quot;font-size: 60px;&quot;&gt;Start decoding == 1&lt;/font&gt;" style="text;html=1;align=center;verticalAlign=middle;resizable=0;points=[];autosize=1;strokeColor=none;fillColor=none;" vertex="1" parent="1">
                    <mxGeometry x="1100" y="2130" width="550" height="90" as="geometry"/>
                </mxCell>
                <mxCell id="315" value="&lt;font style=&quot;font-size: 100px;&quot;&gt;bits&lt;/font&gt;" style="text;html=1;align=center;verticalAlign=middle;resizable=0;points=[];autosize=1;strokeColor=none;fillColor=none;" vertex="1" parent="1">
                    <mxGeometry x="1170" y="3180" width="180" height="130" as="geometry"/>
                </mxCell>
                <mxCell id="321" value="" style="edgeStyle=none;orthogonalLoop=1;jettySize=auto;html=1;rounded=0;strokeWidth=10;fontSize=100;endArrow=block;startSize=14;endSize=45;sourcePerimeterSpacing=8;targetPerimeterSpacing=8;curved=1;exitX=0.504;exitY=0.999;exitDx=0;exitDy=0;entryX=0.5;entryY=0;entryDx=0;entryDy=0;endFill=1;exitPerimeter=0;" edge="1" parent="1" source="274" target="280">
                    <mxGeometry width="140" relative="1" as="geometry">
                        <mxPoint x="1120" y="1380" as="sourcePoint"/>
                        <mxPoint x="1260" y="1380" as="targetPoint"/>
                        <Array as="points"/>
                    </mxGeometry>
                </mxCell>
                <mxCell id="322" value="" style="edgeStyle=none;orthogonalLoop=1;jettySize=auto;html=1;rounded=1;strokeWidth=10;fontSize=100;endArrow=block;startSize=14;endSize=45;sourcePerimeterSpacing=8;targetPerimeterSpacing=8;entryX=0.5;entryY=0;entryDx=0;entryDy=0;endFill=1;" edge="1" parent="1" target="283">
                    <mxGeometry width="140" relative="1" as="geometry">
                        <mxPoint x="1100" y="1400" as="sourcePoint"/>
                        <mxPoint x="1780" y="1710" as="targetPoint"/>
                        <Array as="points">
                            <mxPoint x="2000" y="1400"/>
                        </Array>
                    </mxGeometry>
                </mxCell>
                <mxCell id="323" value="&lt;font style=&quot;font-size: 120px;&quot;&gt;?&lt;/font&gt;" style="text;html=1;align=center;verticalAlign=middle;resizable=0;points=[];autosize=1;strokeColor=none;fillColor=none;" vertex="1" parent="1">
                    <mxGeometry x="1100" y="1240" width="90" height="160" as="geometry"/>
                </mxCell>
                <mxCell id="324" value="" style="edgeStyle=none;orthogonalLoop=1;jettySize=auto;html=1;rounded=0;strokeWidth=10;fontSize=100;endArrow=block;startSize=14;endSize=45;sourcePerimeterSpacing=8;targetPerimeterSpacing=8;curved=1;entryX=0.5;entryY=0;entryDx=0;entryDy=0;exitX=0.5;exitY=1;exitDx=0;exitDy=0;endFill=1;" edge="1" parent="1" source="280" target="281">
                    <mxGeometry width="140" relative="1" as="geometry">
                        <mxPoint x="1065" y="2030" as="sourcePoint"/>
                        <mxPoint x="1065" y="2320" as="targetPoint"/>
                        <Array as="points"/>
                    </mxGeometry>
                </mxCell>
                <mxCell id="325" value="" style="edgeStyle=none;orthogonalLoop=1;jettySize=auto;html=1;rounded=1;strokeWidth=10;fontSize=100;endArrow=block;startSize=14;endSize=45;sourcePerimeterSpacing=8;targetPerimeterSpacing=8;entryX=0.5;entryY=1;entryDx=0;entryDy=0;endFill=1;" edge="1" parent="1" target="283">
                    <mxGeometry width="140" relative="1" as="geometry">
                        <mxPoint x="1100" y="2960" as="sourcePoint"/>
                        <mxPoint x="2020" y="2350" as="targetPoint"/>
                        <Array as="points">
                            <mxPoint x="2000" y="2960"/>
                        </Array>
                    </mxGeometry>
                </mxCell>
                <mxCell id="326" value="&lt;font style=&quot;font-size: 120px;&quot;&gt;?&lt;/font&gt;" style="text;html=1;align=center;verticalAlign=middle;resizable=0;points=[];autosize=1;strokeColor=none;fillColor=none;" vertex="1" parent="1">
                    <mxGeometry x="1100" y="2805" width="90" height="160" as="geometry"/>
                </mxCell>
                <mxCell id="327" value="&lt;font color=&quot;#ff0000&quot; style=&quot;font-size: 50px;&quot;&gt;Parity Check == 1&lt;br&gt;&lt;/font&gt;" style="text;html=1;align=center;verticalAlign=middle;resizable=0;points=[];autosize=1;strokeColor=none;fillColor=none;" vertex="1" parent="1">
                    <mxGeometry x="1190" y="2880" width="420" height="70" as="geometry"/>
                </mxCell>
                <mxCell id="328" value="&lt;font color=&quot;#ff0000&quot; style=&quot;font-size: 50px;&quot;&gt;Parity Check == 1 &lt;br&gt;or MaxIter&lt;/font&gt;" style="text;html=1;align=center;verticalAlign=middle;resizable=0;points=[];autosize=1;strokeColor=none;fillColor=none;" vertex="1" parent="1">
                    <mxGeometry x="1200" y="1270" width="420" height="130" as="geometry"/>
                </mxCell>
                <mxCell id="329" value="" style="edgeStyle=none;orthogonalLoop=1;jettySize=auto;html=1;rounded=0;strokeWidth=10;fontSize=100;endArrow=block;startSize=14;endSize=45;sourcePerimeterSpacing=8;targetPerimeterSpacing=8;curved=1;entryX=0.5;entryY=0;entryDx=0;entryDy=0;exitX=0.5;exitY=1;exitDx=0;exitDy=0;endFill=1;" edge="1" parent="1">
                    <mxGeometry width="140" relative="1" as="geometry">
                        <mxPoint x="1100" y="2780" as="sourcePoint"/>
                        <mxPoint x="1100" y="3115" as="targetPoint"/>
                        <Array as="points"/>
                    </mxGeometry>
                </mxCell>
                <mxCell id="330" value="&lt;font color=&quot;#ff0000&quot; style=&quot;font-size: 50px;&quot;&gt;ELSE&lt;/font&gt;" style="text;html=1;align=center;verticalAlign=middle;resizable=0;points=[];autosize=1;strokeColor=none;fillColor=none;" vertex="1" parent="1">
                    <mxGeometry x="930" y="2990" width="150" height="70" as="geometry"/>
                </mxCell>
                <mxCell id="335" value="" style="edgeStyle=none;orthogonalLoop=1;jettySize=auto;html=1;rounded=0;strokeWidth=10;fontSize=100;endArrow=none;startSize=14;endSize=14;sourcePerimeterSpacing=8;targetPerimeterSpacing=8;curved=1;exitX=0;exitY=0.5;exitDx=0;exitDy=0;endFill=0;" edge="1" parent="1" source="283">
                    <mxGeometry width="140" relative="1" as="geometry">
                        <mxPoint x="1390" y="2070" as="sourcePoint"/>
                        <mxPoint x="1100" y="2210" as="targetPoint"/>
                        <Array as="points"/>
                    </mxGeometry>
                </mxCell>
                <mxCell id="337" value="" style="edgeStyle=none;orthogonalLoop=1;jettySize=auto;html=1;rounded=1;strokeWidth=10;fontSize=100;endArrow=block;startSize=14;endSize=45;sourcePerimeterSpacing=8;targetPerimeterSpacing=8;exitX=0.5;exitY=1;exitDx=0;exitDy=0;entryX=0;entryY=0.5;entryDx=0;entryDy=0;endFill=1;" edge="1" parent="1" target="274">
                    <mxGeometry width="140" relative="1" as="geometry">
                        <mxPoint x="1094.6" y="3510" as="sourcePoint"/>
                        <mxPoint x="500" y="890" as="targetPoint"/>
                        <Array as="points">
                            <mxPoint x="1095" y="3600"/>
                            <mxPoint x="320" y="3600"/>
                            <mxPoint x="320" y="915"/>
                        </Array>
                    </mxGeometry>
                </mxCell>
            </root>
        </mxGraphModel>
    </diagram>
</mxfile>